<svg width="100" viewBox="0 0 378 71" fill="none" xmlns="http://www.w3.org/2000/svg">
<g filter="url(#filter0_d_50_24)">
<path d="M327.736 4.05228C327.874 5.17313 327.766 6.15402 326.838 6.79753C325.453 7.75743 324.089 9.28408 324.086 10.9687L324.022 48.2959C324.022 53.6961 322.986 57.4674 320.912 59.6094C319.818 60.7486 318.36 61.5804 316.537 62.1045C314.714 62.6513 312.743 62.902 310.624 62.8564C308.505 62.8109 306.42 62.4804 304.369 61.8652C302.812 61.4032 301.396 60.7869 300.121 60.0164C299.33 59.5382 298.9 58.6538 298.9 57.7295C298.9 57.251 298.969 56.5332 299.105 55.5762C299.242 54.6419 299.447 53.6507 299.721 52.6025C300.127 50.9388 301.725 49.9707 303.438 49.9707H304.698C306.111 49.9707 307.444 50.7043 307.796 52.0731C307.953 52.6849 308.088 53.387 308.202 54.1796C308.29 54.7985 308.768 55.3027 309.394 55.3027C311.079 55.3027 312.265 54.8697 312.948 54.0039C313.654 53.1379 314.008 51.4402 314.008 48.9111V11.0771C314.008 9.33183 312.543 7.76932 311.138 6.73416C310.286 6.10688 310.249 5.22543 310.372 4.17508L310.391 4.01578C310.66 1.72582 312.601 0 314.907 0H323.319C325.556 0 327.441 1.66695 327.715 3.88639L327.736 4.05228ZM179.008 15.3643C179.486 13.7635 181.155 12.8312 182.734 13.2822L208.478 20.6348C210.057 21.0861 210.95 22.749 210.473 24.3496L202.684 50.4375C202.206 52.0381 200.537 52.9694 198.957 52.5186C197.378 52.0673 196.484 50.4044 196.962 48.8037L199.652 39.7948C200.772 36.0442 196.789 32.7975 193.321 34.6133C184.207 39.3861 172.477 45.2992 162.143 49.7852C156.983 52.0248 152.1 53.9391 148.029 55.1758C145.996 55.7935 144.098 56.2625 142.431 56.5088C140.831 56.745 139.142 56.8261 137.686 56.417C136.922 56.2025 136.093 55.8168 135.399 55.1279C134.675 54.4086 134.245 53.5013 134.096 52.5215C133.825 50.7428 134.505 48.9352 135.329 47.3906C137.045 44.1757 140.663 39.8076 146.354 34.0693C152.005 28.3705 155.145 24.4936 156.526 22.043C156.533 22.0308 156.54 22.0187 156.547 22.0067C156.728 21.6828 156.476 21.3073 156.107 21.3516C154.978 21.4873 153.528 21.8078 151.78 22.3184C148.29 23.3378 143.92 25.0188 139.11 27.0947C129.508 31.2393 118.459 36.8193 109.779 41.3818C105.447 43.6592 101.718 45.6762 99.0732 47.123C97.7512 47.8463 96.6996 48.4259 95.9805 48.8252C95.621 49.0248 95.3444 49.1801 95.1582 49.2842C95.0652 49.3361 94.9942 49.3761 94.9473 49.4023C94.9242 49.4153 94.907 49.4252 94.8955 49.4316C94.89 49.4347 94.8856 49.4369 94.8828 49.4385C94.8807 49.4397 94.878 49.439 94.8768 49.4368C94.8598 49.4064 94.7154 49.1396 93.4609 46.8174C92.2123 44.506 92.064 44.2302 92.047 44.197C92.0455 44.1939 92.0468 44.1921 92.0498 44.1904C92.0531 44.1886 92.0584 44.186 92.0645 44.1826C92.0771 44.1755 92.0958 44.165 92.1201 44.1514C92.1693 44.1238 92.2417 44.0825 92.3369 44.0293C92.5277 43.9227 92.8095 43.7658 93.1738 43.5635C93.903 43.1587 94.9658 42.5717 96.2998 41.8418C98.9676 40.3822 102.726 38.3489 107.095 36.0527C115.817 31.4678 127.028 25.8038 136.846 21.5664C141.746 19.4514 146.379 17.6576 150.219 16.5361C152.135 15.9765 153.932 15.56 155.512 15.3701C157.01 15.19 158.677 15.1633 160.107 15.7061C160.873 15.9965 161.663 16.4866 162.271 17.2832C162.89 18.0952 163.171 19.0342 163.215 19.96C163.295 21.6545 162.589 23.3806 161.71 24.9404C159.892 28.1665 156.237 32.5401 150.54 38.2852C144.882 43.991 141.835 47.8119 140.58 50.1641C140.456 50.3968 140.636 50.6667 140.899 50.6435C141.129 50.6232 141.388 50.5933 141.676 50.5508C142.942 50.3638 144.529 49.9813 146.405 49.4111C150.154 48.272 154.795 46.4614 159.867 44.2598C169.998 39.8623 181.574 34.0311 190.646 29.2803C193.984 27.5327 193.456 22.6356 189.833 21.6014L181.003 19.0801C179.423 18.6289 178.53 16.965 179.008 15.3643ZM24.8506 3.41895C30.651 3.41901 35.4907 4.60902 39.369 6.98898C40.2109 7.5056 40.6758 8.44683 40.6758 9.43457C40.6758 9.95865 40.596 10.7676 40.4365 11.8613C40.2998 12.9323 40.0947 14.0603 39.8213 15.2451C39.3788 17.1258 37.5755 18.2188 35.6435 18.2188H35.2684C33.4672 18.2188 31.9032 17.5605 31.4731 15.8115C31.0246 13.9884 29.8087 11.9503 27.9583 11.6332C26.8512 11.4435 25.7014 11.3487 24.5088 11.3486C21.3416 11.3486 18.8805 12.5679 17.126 15.0059C15.3714 17.4212 14.4941 21.6367 14.4941 27.6523C14.4941 39.1823 17.6729 44.9473 24.0303 44.9473C25.0783 44.9472 26.0818 44.8762 27.0406 44.7342C29.3277 44.3955 30.7295 42.2364 30.7295 39.9244V39.1418C30.7295 37.178 29.4004 35.5552 27.744 34.5001C27.7135 34.4807 27.6833 34.4612 27.6534 34.4416C26.6945 33.8127 26.4032 32.6186 26.5506 31.4814C26.8294 29.3305 28.6613 27.7207 30.8303 27.7207H39.6654C41.8072 27.7207 43.6162 29.3104 43.8916 31.4344L43.9252 31.6936C44.0546 32.6919 43.9838 33.5442 43.1679 34.134C41.9828 34.9908 40.8125 36.3593 40.8125 37.8218V42.7395C40.8125 46.2763 39.1949 49.7902 35.8961 51.0657C35.0964 51.3749 34.2743 51.6368 33.4297 51.8516C30.741 52.5123 27.3911 52.8427 23.3809 52.8428C16.7046 52.8428 11.8053 50.9513 8.68359 47.1689C5.56185 43.3636 4 37.1771 4 28.6094C4 20.0417 5.85807 13.707 9.57227 9.60547C13.3092 5.48128 18.4021 3.41895 24.8506 3.41895ZM64.2598 16.749C69.7283 16.7491 73.8416 18.0935 76.5986 20.7822C79.3556 23.4711 80.7344 27.8576 80.7344 33.9414C80.7344 38.4986 79.9596 42.1673 78.4102 44.9473C76.8608 47.7043 74.7527 49.7096 72.0869 50.9629C69.4438 52.1933 66.4585 52.8085 63.1318 52.8086C57.9367 52.8086 53.9375 51.4299 51.1348 48.6729C48.3548 45.8929 46.9648 41.2331 46.9648 34.6934C46.9648 28.8145 48.5029 24.3597 51.5791 21.3291C54.678 18.2759 58.9051 16.749 64.2598 16.749ZM93.4847 46.8619C94.2579 48.2934 93.5124 50.2481 92.0643 49.5064C91.5576 49.2468 91.1221 48.8365 90.8301 48.2959C90.549 47.7756 90.439 47.2054 90.4808 46.6504C90.6057 44.9891 92.693 45.396 93.4847 46.8619ZM240.385 4.06827C240.516 5.17965 240.401 6.15295 239.484 6.79448C238.109 7.75632 236.762 9.27825 236.762 10.956V31.0693C236.762 34.4417 237.309 36.9368 238.402 38.5547C239.496 40.1496 241.467 40.9473 244.315 40.9473C247.163 40.9472 249.169 40.1269 250.331 38.4863C251.493 36.8229 252.074 34.3504 252.074 31.0693V11.124C252.074 9.35317 250.563 7.77515 249.14 6.72066C248.297 6.09521 248.283 5.23166 248.412 4.18925L248.432 4.02834C248.716 1.72784 250.671 0 252.989 0H260.326C262.563 0 264.448 1.66695 264.722 3.88639L264.743 4.05424C264.881 5.17384 264.773 6.15347 263.846 6.79648C262.461 7.75708 261.098 9.28542 261.098 10.9707V30.7959C261.098 36.9025 259.708 41.4372 256.928 44.3994C254.171 47.3616 249.693 48.8427 243.495 48.8428C239.348 48.8428 236.044 48.2046 233.583 46.9287C231.122 45.6299 229.356 43.6474 228.285 40.9814C227.214 38.3154 226.679 34.9202 226.679 30.7959V10.9849C226.679 9.29333 225.324 7.77331 223.937 6.80562C223.017 6.16461 222.891 5.17837 223.022 4.06554L223.041 3.90001C223.303 1.67607 225.188 0 227.427 0H235.975C238.217 0 240.104 1.6778 240.366 3.90405L240.385 4.06827ZM347.155 4.58665C347.247 5.37365 347.199 6.04847 346.593 6.55908C345.3 7.6487 344.112 9.31441 344.578 10.94L349.691 28.7793C350.193 30.3743 350.591 31.9239 350.888 33.4277C351.184 34.9088 351.389 36.3216 351.503 37.666L351.544 38.3777C351.559 38.6497 351.784 38.8623 352.057 38.8623C352.337 38.8623 352.566 38.6373 352.576 38.3569C352.678 35.6239 353.255 32.4769 354.306 28.916L359.627 11.11C360.127 9.4366 358.915 7.71158 357.576 6.58957C356.95 6.0648 356.888 5.3591 356.984 4.54786L357.045 4.02222C357.315 1.72859 359.259 0 361.569 0H369.54C371.79 0 373.688 1.67759 373.964 3.9112C374.113 5.12391 373.777 6.38985 372.74 7.03646C372.576 7.1388 372.403 7.23941 372.22 7.33829C370.579 8.22733 369.138 9.52461 368.557 11.2984L357.813 44.0885C356.924 46.8025 354.391 48.6377 351.535 48.6377C348.681 48.6377 346.15 46.8049 345.259 44.0935L334.27 10.6462C333.757 9.08414 332.498 7.93762 331.076 7.11235C330.996 7.06586 330.918 7.01908 330.843 6.97202C329.879 6.36852 329.599 5.18496 329.732 4.05505C330.004 1.7427 331.964 0 334.292 0H342.55C344.868 0 346.819 1.73529 347.09 4.03783L347.155 4.58665ZM287.553 0C291.882 0.0456072 295.471 0.569699 298.319 1.57227C301.19 2.5521 303.332 4.17004 304.745 6.42578C306.158 8.68162 306.864 11.7465 306.864 15.6201C306.864 26.1929 299.709 31.4794 285.399 31.4795C283.663 31.4795 282.255 32.8873 282.255 34.624V36.0707C282.255 38.2214 283.779 40.0033 285.79 40.7637C286.286 40.951 286.725 41.1454 287.108 41.347C288.182 41.9124 288.528 43.1656 288.379 44.3702C288.103 46.6121 286.198 48.2959 283.939 48.2959H273.005C270.717 48.2959 268.792 46.5838 268.524 44.312L268.508 44.1699C268.381 43.09 268.385 42.2273 269.276 41.604C270.688 40.6167 272.172 39.0241 272.172 37.3016V11.133C272.172 9.35678 270.657 7.77548 269.232 6.71586C268.393 6.09236 268.377 5.23506 268.499 4.19706L268.517 4.0461C268.789 1.73885 270.744 0 273.067 0H287.553ZM63.7129 23.8926C61.4799 23.8926 59.8278 24.7016 58.7568 26.3193C57.6859 27.9144 57.1504 30.6488 57.1504 34.5225C57.1504 41.9736 59.3949 45.6992 63.8838 45.6992C66.1622 45.6991 67.8487 44.856 68.9424 43.1699C70.036 41.4609 70.583 38.6694 70.583 34.7959C70.583 27.5273 68.2926 23.8928 63.7129 23.8926ZM282.255 19.1748C282.255 21.7609 284.351 23.8574 286.938 23.8574C290.105 23.8574 292.463 23.2307 294.013 21.9775C295.585 20.7015 296.371 18.5138 296.371 15.415C296.371 12.2935 295.516 10.2198 293.808 9.19434C292.122 8.14621 289.66 7.62212 286.425 7.62207C284.122 7.62207 282.255 9.48901 282.255 11.792V19.1748Z" fill="black"/>
</g>
<defs>
<filter id="filter0_d_50_24" x="0" y="0" width="377.998" height="70.8617" filterUnits="userSpaceOnUse" color-interpolation-filters="sRGB">
<feFlood flood-opacity="0" result="BackgroundImageFix"/>
<feColorMatrix in="SourceAlpha" type="matrix" values="0 0 0 0 0 0 0 0 0 0 0 0 0 0 0 0 0 0 127 0" result="hardAlpha"/>
<feOffset dy="4"/>
<feGaussianBlur stdDeviation="2"/>
<feComposite in2="hardAlpha" operator="out"/>
<feColorMatrix type="matrix" values="0 0 0 0 0 0 0 0 0 0 0 0 0 0 0 0 0 0 0.25 0"/>
<feBlend mode="normal" in2="BackgroundImageFix" result="effect1_dropShadow_50_24"/>
<feBlend mode="normal" in="SourceGraphic" in2="effect1_dropShadow_50_24" result="shape"/>
</filter>
</defs>
</svg>
